# xmcd
#
# Track frame offsets:
#	150
#	26012
#	38912
#	54239
#	80105
#	95630
#	116024
#	133091
#	146034
#	169241
#
# Disc length: 2502 seconds
#
# Revision: 1
# Processed by: cddbd v1.5.2PL0 Copyright (c) Steve Scherf et al.
# Submitted via: audiograbber 1.83.01
#
DISCID=8e09c40a
DTITLE=Aaron Lewis - The Road
DYEAR=2012
DGENRE=Country
TTITLE0=75
TTITLE1=The Road
TTITLE2=Endless Summer
TTITLE3=Red, White and Blue
TTITLE4=Lessons Learned
TTITLE5=Forever
TTITLE6=Granddaddy's Gun
TTITLE7=State Lines
TTITLE8=Anywhere But Here
TTITLE9=Party In Hell
EXTD=
EXTT0=
EXTT1=
EXTT2=
EXTT3=
EXTT4=
EXTT5=
EXTT6=
EXTT7=
EXTT8=
EXTT9=
PLAYORDER=
